<svg width="24" height="24" xmlns="http://www.w3.org/2000/svg" viewBox="0 0 24 24"><title>control_camera</title><g fill="none" class="nc-icon-wrapper"><path d="M7.3 13.77L5.54 12l1.76-1.77-1.76-1.77L2 12l3.54 3.54 1.76-1.77zm8.24 4.69l-1.77-1.76L12 18.46l-1.77-1.76-1.77 1.76L12 22l3.54-3.54zm2.92-2.92L22 12l-3.54-3.54-1.76 1.77L18.46 12l-1.76 1.77 1.76 1.77zM12 5.54l1.77 1.76 1.77-1.76L12 2 8.46 5.54l1.77 1.76L12 5.54z" fill="#a781d2"></path><path d="M12 15a3 3 0 1 0 0-6 3 3 0 0 0 0 6z" fill="#a781d2"></path></g></svg>